<?xml version="1.0"?>
<svg xmlns="http://www.w3.org/2000/svg" xmlns:svg="http://www.w3.org/2000/svg" width="500" height="500" enable-background="new 0 0 500 500" version="1.1" xml:space="preserve" style="background-color:transparent;">
 <g class="layer">
  <title>Layer 1</title>
  <g id="BACKGROUND" transform="matrix(1 0 0 1 0 0)">
   <rect fill="none" height="500" id="svg_1" width="500" x="1" y="-2"/>
  </g>
  <g id="OBJECTS">
   <ellipse cx="250.71" cy="434.75" fill="#DBE6F7" id="svg_2" rx="221.25" ry="14"/>
   <g id="svg_3">
    <path d="m165.17,95.28c0,1.05 -0.42,2 -1.12,2.69c-0.68,0.7 -1.64,1.12 -2.68,1.12l-81.45,0c-2.09,0 -3.8,-1.71 -3.8,-3.81c0,-1.04 0.43,-1.99 1.12,-2.69c0.68,-0.69 1.64,-1.12 2.68,-1.12l3.85,0c1.52,-3.53 5.04,-6 9.12,-6c2.75,0 5.24,1.12 7.04,2.93c2.4,-4.07 6.83,-6.8 11.89,-6.8c1.4,0 2.74,0.21 4,0.59c2.65,-4.98 7.89,-8.38 13.93,-8.38c7.25,0 13.35,4.9 15.19,11.56c1.34,-0.67 2.84,-1.05 4.44,-1.05c4.52,0 8.34,3.02 9.54,7.16l2.45,0c2.09,-0.01 3.8,1.71 3.8,3.8z" fill="#DBE6F7" id="svg_4"/>
    <path d="m477.65,145.89c0,1.05 -0.43,2 -1.12,2.69c-0.69,0.7 -1.64,1.12 -2.69,1.12l-81.44,0c-2.1,0 -3.81,-1.71 -3.81,-3.81c0,-1.04 0.43,-2 1.12,-2.69c0.69,-0.69 1.64,-1.12 2.69,-1.12l3.85,0c1.51,-3.53 5.03,-6 9.11,-6c2.75,0 5.24,1.12 7.04,2.93c2.4,-4.07 6.83,-6.81 11.89,-6.81c1.4,0 2.74,0.21 4,0.6c2.65,-4.99 7.89,-8.38 13.93,-8.38c7.25,0 13.35,4.9 15.19,11.56c1.34,-0.67 2.84,-1.05 4.44,-1.05c4.53,0 8.34,3.02 9.54,7.15l2.45,0c2.09,0 3.81,1.72 3.81,3.81z" fill="#DBE6F7" id="svg_5"/>
    <path d="m328.06,104.85c0,1.05 -0.42,2 -1.12,2.69c-0.68,0.69 -1.64,1.12 -2.68,1.12l-81.45,0c-2.09,0 -3.8,-1.71 -3.8,-3.81c0,-1.05 0.43,-2 1.12,-2.69c0.69,-0.69 1.64,-1.12 2.69,-1.12l3.85,0c1.52,-3.53 5.03,-6 9.11,-6c2.75,0 5.24,1.12 7.04,2.92c2.4,-4.07 6.83,-6.8 11.89,-6.8c1.4,0 2.74,0.21 4,0.59c2.65,-4.98 7.89,-8.37 13.93,-8.37c7.25,0 13.35,4.89 15.19,11.55c1.34,-0.66 2.84,-1.05 4.44,-1.05c4.53,0 8.34,3.02 9.54,7.16l2.45,0c2.09,0 3.8,1.71 3.8,3.81z" fill="#DBE6F7" id="svg_6"/>
   </g>
   <g id="svg_7">
    <g id="svg_8">
     <path d="m67.34,194.59c3.3,11.1 14.39,10.75 14.15,19.77c-0.23,9.01 5.43,15.85 13.22,14.2c7.78,-1.65 13.42,-3.3 16.97,5.66c3.55,8.97 14.88,13.45 19.36,6.37c1.12,-1.76 2.32,-3.67 3.5,-5.54c0.32,-0.51 0.65,-1.02 0.96,-1.52c0.08,-0.12 0.15,-0.24 0.22,-0.35c4.75,-7.54 3.18,-17.52 -3.82,-23.03c-2.83,-2.23 -6.22,-3.48 -10.06,-2.35c-12.03,3.54 -7.7,-8.56 -14.87,-13.68c-8.25,-5.9 -15.34,0.77 -20.99,-4.25c-7.87,-6.99 -21.95,-6.39 -18.64,4.72z" fill="#BBD4F2" id="svg_9"/>
     <g id="svg_10">
      <path d="m81.69,199.39l52.85,35.66c0.32,-0.51 0.65,-1.02 0.96,-1.52l-52.8,-35.63c-0.41,-0.28 -0.97,-0.17 -1.25,0.24c-0.28,0.41 -0.17,0.97 0.24,1.25z" fill="#A4C8F2" id="svg_11"/>
     </g>
    </g>
    <path d="m328.78,141.1c12.44,-5.18 23.27,-12.38 17.26,-16.7c-6.01,-4.32 -24.4,8.43 -32.92,23.44l-4.12,4.42c6.4,-10.83 8.27,-26.49 2.74,-29.46c-5.5,-2.95 -5.8,7.58 -4.47,17.24c1.01,7.36 -0.01,12.41 -0.78,14.92l-19.45,20.85c10.08,-17.18 13.01,-41.89 4.25,-46.6c-8.72,-4.68 -9.2,12.03 -7.09,27.36c1.6,11.59 0.01,19.58 -1.21,23.59l-3.88,4.15c0.61,0.79 1.23,1.57 1.86,2.35l23.14,-24.81c2.76,-0.7 6.77,-1.28 11.98,-0.93c9.73,0.66 20.22,-0.38 16.89,-5.65c-2.89,-4.59 -14.8,-3.02 -24.67,2.08l8,-8.58c2.93,-2.24 7.1,-5.43 12.47,-7.67z" fill="#DBE6F7" id="svg_12"/>
    <g id="svg_13">
     <path d="m81.32,149.77c-1.3,10.74 8.32,14.56 4.77,22.2c-3.56,7.63 -1.25,15.59 6.03,17.07c7.28,1.48 12.73,2.17 12.43,11.16c-0.29,9 7.74,17.05 14.21,12.66c1.62,-1.1 3.36,-2.28 5.06,-3.45c0.47,-0.32 0.94,-0.63 1.39,-0.95c0.11,-0.07 0.22,-0.14 0.32,-0.21c6.87,-4.69 9.24,-13.82 5.29,-21.14c-1.59,-2.96 -4.03,-5.3 -7.74,-5.76c-11.62,-1.44 -3.41,-10.2 -7.64,-17.25c-4.88,-8.12 -13.43,-5.03 -16.4,-11.44c-4.15,-8.91 -16.42,-13.63 -17.72,-2.89z" fill="#DBE6F7" id="svg_14"/>
     <g id="svg_15">
      <path d="m91.83,159.22l31.99,50.19c0.47,-0.32 0.93,-0.63 1.39,-0.94l-31.97,-50.15c-0.24,-0.39 -0.77,-0.51 -1.16,-0.26c-0.39,0.25 -0.5,0.77 -0.25,1.16z" fill="#BBD4F2" id="svg_16"/>
     </g>
    </g>
    <g id="svg_17">
     <path d="m339.23,366.29c-3.38,11.38 -14.74,11.02 -14.5,20.26c0.24,9.23 -5.56,16.24 -13.54,14.55c-7.97,-1.7 -13.75,-3.39 -17.38,5.79c-3.64,9.19 -15.24,13.78 -19.83,6.53c-1.15,-1.81 -2.38,-3.76 -3.59,-5.68c-0.33,-0.52 -0.66,-1.05 -0.99,-1.56c-0.07,-0.12 -0.15,-0.24 -0.22,-0.36c-4.86,-7.71 -3.26,-17.94 3.91,-23.58c2.9,-2.29 6.37,-3.57 10.31,-2.41c12.32,3.62 7.88,-8.77 15.23,-14.02c8.45,-6.04 15.71,0.8 21.5,-4.35c8.07,-7.16 22.48,-6.54 19.1,4.83z" fill="#BBD4F2" id="svg_18"/>
     <g id="svg_19">
      <path d="m324.52,371.21l-54.13,36.53c-0.33,-0.52 -0.66,-1.05 -0.98,-1.56l54.08,-36.5c0.42,-0.28 1,-0.17 1.28,0.25c0.29,0.42 0.18,1 -0.25,1.28z" fill="#A4C8F2" id="svg_20"/>
     </g>
    </g>
    <g id="svg_21">
     <path d="m319.59,324.3c1.34,11 -8.52,14.92 -4.88,22.73c3.64,7.82 1.28,15.98 -6.18,17.5c-7.46,1.51 -13.04,2.21 -12.74,11.43c0.3,9.22 -7.93,17.46 -14.55,12.96c-1.66,-1.12 -3.44,-2.33 -5.19,-3.53c-0.48,-0.32 -0.95,-0.65 -1.42,-0.97c-0.11,-0.07 -0.22,-0.15 -0.33,-0.22c-7.03,-4.8 -9.46,-14.16 -5.42,-21.66c1.64,-3.03 4.13,-5.42 7.93,-5.89c11.91,-1.48 3.49,-10.45 7.83,-17.67c5,-8.32 13.75,-5.16 16.8,-11.72c4.25,-9.13 16.82,-13.96 18.15,-2.96z" fill="#DBE6F7" id="svg_22"/>
     <g id="svg_23">
      <g id="svg_24">
       <path d="m308.83,333.98l-32.78,51.41c-0.47,-0.32 -0.95,-0.65 -1.42,-0.97l32.75,-51.37c0.25,-0.4 0.78,-0.51 1.18,-0.26c0.41,0.26 0.52,0.79 0.27,1.19z" fill="#BBD4F2" id="svg_25"/>
      </g>
     </g>
    </g>
   </g>
   <g id="svg_26">
    <g id="svg_27">
     <g id="svg_28">
      <g id="svg_29">
       <g id="svg_30">
        <path d="m469.99,293.76c3.02,0 5.47,2.45 5.47,5.46c0,3.02 -2.45,5.47 -5.47,5.47c-3.01,0 -5.46,-2.45 -5.46,-5.47c0,-3.01 2.45,-5.46 5.46,-5.46zm0,1.71c-2.06,0 -3.75,1.68 -3.75,3.75c0,2.07 1.69,3.75 3.75,3.75c2.07,0 3.76,-1.68 3.76,-3.75c0,-2.07 -1.69,-3.75 -3.76,-3.75z" fill="#4F60D9" id="svg_31"/>
       </g>
       <g id="svg_32">
        <path d="m464.43,265.98c3.02,0 5.47,2.45 5.47,5.46c0,3.02 -2.45,5.47 -5.47,5.47c-3.01,0 -5.46,-2.45 -5.46,-5.47c0,-3.01 2.45,-5.46 5.46,-5.46zm0,1.71c-2.06,0 -3.75,1.68 -3.75,3.75c0,2.07 1.69,3.75 3.75,3.75c2.07,0 3.76,-1.68 3.76,-3.75c0,-2.07 -1.69,-3.75 -3.76,-3.75z" fill="#707FFF" id="svg_33"/>
       </g>
       <g id="svg_34">
        <g id="svg_35">
         <g id="svg_36">
          <path d="m447.81,258.28c0,0.47 0.38,0.86 0.85,0.86l3.79,0c0.47,0 0.85,-0.39 0.85,-0.86c0,-0.47 -0.38,-0.86 -0.85,-0.86l-3.79,0c-0.47,0 -0.85,0.38 -0.85,0.86z" fill="#1D38C8" id="svg_37"/>
         </g>
         <g id="svg_38">
          <path d="m441.19,258.28c0,0.47 0.38,0.86 0.86,0.86l3.78,0c0.47,0 0.86,-0.39 0.86,-0.86c0,-0.47 -0.39,-0.86 -0.86,-0.86l-3.78,0c-0.48,0 -0.86,0.38 -0.86,0.86z" fill="#1D38C8" id="svg_39"/>
         </g>
        </g>
        <g id="svg_40">
         <g id="svg_41">
          <path d="m446.39,252.97l0,3.4c0,0.47 0.38,0.86 0.86,0.86c0.47,0 0.85,-0.39 0.85,-0.86l0,-3.4c0,-0.47 -0.38,-0.86 -0.85,-0.86c-0.48,0 -0.86,0.39 -0.86,0.86z" fill="#1D38C8" id="svg_42"/>
         </g>
         <g id="svg_43">
          <path d="m446.39,260.19l0,3.4c0,0.47 0.38,0.85 0.86,0.85c0.47,0 0.85,-0.38 0.85,-0.85l0,-3.4c0,-0.47 -0.38,-0.86 -0.85,-0.86c-0.48,0 -0.86,0.38 -0.86,0.86z" fill="#1D38C8" id="svg_44"/>
         </g>
        </g>
       </g>
       <g id="svg_45">
        <g id="svg_46">
         <g id="svg_47">
          <g id="svg_48">
           <path d="m453.97,287.47c0,0.48 0.39,0.86 0.86,0.86l3.78,0c0.48,0 0.86,-0.38 0.86,-0.86c0,-0.47 -0.39,-0.85 -0.86,-0.85l-3.78,0c-0.47,0 -0.86,0.38 -0.86,0.85z" fill="#707FFF" id="svg_49"/>
          </g>
          <g id="svg_50">
           <path d="m447.36,287.47c0,0.48 0.38,0.86 0.85,0.86l3.79,0c0.47,0 0.85,-0.38 0.85,-0.86c0,-0.47 -0.38,-0.85 -0.85,-0.85l-3.79,0c-0.47,0 -0.85,0.38 -0.85,0.85z" fill="#707FFF" id="svg_51"/>
          </g>
         </g>
         <g id="svg_52">
          <g id="svg_53">
           <path d="m452.56,282.17l0,3.39c0,0.48 0.38,0.86 0.85,0.86c0.48,0 0.86,-0.38 0.86,-0.86l0,-3.39c0,-0.48 -0.38,-0.86 -0.86,-0.86c-0.47,0 -0.85,0.38 -0.85,0.86z" fill="#707FFF" id="svg_54"/>
          </g>
          <g id="svg_55">
           <path d="m452.56,289.38l0,3.4c0,0.47 0.38,0.86 0.85,0.86c0.48,0 0.86,-0.39 0.86,-0.86l0,-3.4c0,-0.47 -0.38,-0.85 -0.86,-0.85c-0.47,0 -0.85,0.38 -0.85,0.85z" fill="#707FFF" id="svg_56"/>
          </g>
         </g>
        </g>
       </g>
      </g>
     </g>
    </g>
    <g id="svg_57">
     <g id="svg_58">
      <g id="svg_59">
       <g id="svg_60">
        <path d="m55.62,161.5c0,3.01 -2.45,5.46 -5.47,5.46c-3.01,0 -5.46,-2.45 -5.46,-5.46s2.45,-5.47 5.46,-5.47c3.02,0 5.47,2.45 5.47,5.47zm-9.22,0c0,2.06 1.68,3.75 3.75,3.75c2.07,0 3.75,-1.69 3.75,-3.75c0,-2.07 -1.68,-3.76 -3.75,-3.76c-2.07,0 -3.75,1.69 -3.75,3.76z" fill="#4F60D9" id="svg_61"/>
       </g>
       <g id="svg_62">
        <g id="svg_63">
         <path d="m61.18,133.71c0,3.02 -2.45,5.47 -5.47,5.47c-3.01,0 -5.46,-2.45 -5.46,-5.47s2.45,-5.46 5.46,-5.46c3.02,0 5.47,2.45 5.47,5.46zm-9.22,0c0,2.07 1.69,3.76 3.75,3.76c2.07,0 3.75,-1.69 3.75,-3.76s-1.68,-3.75 -3.75,-3.75c-2.06,0 -3.75,1.69 -3.75,3.75z" fill="#1D38C8" id="svg_64"/>
        </g>
       </g>
       <g id="svg_65">
        <g id="svg_66">
         <g id="svg_67">
          <path d="m72.34,120.55c0,0.47 -0.38,0.86 -0.86,0.86l-3.78,0c-0.47,0 -0.86,-0.39 -0.86,-0.86c0,-0.47 0.39,-0.86 0.86,-0.86l3.78,0c0.48,0 0.86,0.39 0.86,0.86z" fill="#4F60D9" id="svg_68"/>
         </g>
         <g id="svg_69">
          <path d="m78.96,120.55c0,0.47 -0.39,0.86 -0.86,0.86l-3.78,0c-0.48,0 -0.86,-0.39 -0.86,-0.86c0,-0.47 0.39,-0.86 0.86,-0.86l3.78,0c0.47,0 0.86,0.39 0.86,0.86z" fill="#4F60D9" id="svg_70"/>
         </g>
        </g>
        <g id="svg_71">
         <g id="svg_72">
          <path d="m73.76,115.24l0,3.4c0,0.47 -0.39,0.86 -0.86,0.86c-0.47,0 -0.86,-0.39 -0.86,-0.86l0,-3.4c0,-0.47 0.39,-0.85 0.86,-0.85c0.47,0 0.86,0.38 0.86,0.85z" fill="#4F60D9" id="svg_73"/>
         </g>
         <g id="svg_74">
          <path d="m73.76,122.46l0,3.4c0,0.47 -0.39,0.86 -0.86,0.86c-0.47,0 -0.86,-0.39 -0.86,-0.86l0,-3.4c0,-0.47 0.39,-0.86 0.86,-0.86c0.47,0 0.86,0.39 0.86,0.86z" fill="#4F60D9" id="svg_75"/>
         </g>
        </g>
       </g>
       <g id="svg_76">
        <g id="svg_77">
         <g id="svg_78">
          <g id="svg_79">
           <path d="m66.17,149.75c0,0.47 -0.38,0.85 -0.85,0.85l-3.78,0c-0.48,0 -0.86,-0.38 -0.86,-0.85c0,-0.48 0.38,-0.86 0.86,-0.86l3.78,0c0.47,0 0.85,0.38 0.85,0.86z" fill="#707FFF" id="svg_80"/>
          </g>
          <g id="svg_81">
           <path d="m72.79,149.75c0,0.47 -0.38,0.85 -0.86,0.85l-3.78,0c-0.47,0 -0.86,-0.38 -0.86,-0.85c0,-0.48 0.39,-0.86 0.86,-0.86l3.78,0c0.48,0 0.86,0.38 0.86,0.86z" fill="#707FFF" id="svg_82"/>
          </g>
         </g>
         <g id="svg_83">
          <g id="svg_84">
           <path d="m67.59,144.44l0,3.39c0,0.48 -0.38,0.86 -0.86,0.86c-0.47,0 -0.85,-0.38 -0.85,-0.86l0,-3.39c0,-0.48 0.38,-0.86 0.85,-0.86c0.48,0 0.86,0.38 0.86,0.86z" fill="#707FFF" id="svg_85"/>
          </g>
          <g id="svg_86">
           <path d="m67.59,151.66l0,3.39c0,0.48 -0.38,0.86 -0.86,0.86c-0.47,0 -0.85,-0.38 -0.85,-0.86l0,-3.39c0,-0.48 0.38,-0.86 0.85,-0.86c0.48,0 0.86,0.38 0.86,0.86z" fill="#707FFF" id="svg_87"/>
          </g>
         </g>
        </g>
       </g>
      </g>
     </g>
    </g>
    <g id="svg_88">
     <g id="svg_89">
      <path d="m390.19,163.23l0,13.8c0,1.82 1.48,3.3 3.3,3.3l25.05,0l7.56,2.72c0.78,0.28 1.52,-0.49 1.22,-1.26l-2.86,-7.38l0,-11.18c0,-1.82 -1.48,-3.3 -3.3,-3.3l-27.67,0c-1.83,0 -3.3,1.48 -3.3,3.3z" fill="#4F60D9" id="svg_90"/>
     </g>
     <g id="svg_91" opacity="0.5">
      <g id="svg_92">
       <path d="m411.95,170.52c0,1.32 1.07,2.39 2.39,2.39c1.32,0 2.39,-1.07 2.39,-2.39s-1.07,-2.39 -2.39,-2.39c-1.32,0 -2.39,1.07 -2.39,2.39z" fill="#707FFF" id="svg_93"/>
       <path d="m404.38,170.52c0,1.32 1.07,2.39 2.39,2.39c1.32,0 2.39,-1.07 2.39,-2.39s-1.07,-2.39 -2.39,-2.39c-1.32,0 -2.39,1.07 -2.39,2.39z" fill="#707FFF" id="svg_94"/>
       <path d="m396.82,170.52c0,1.32 1.07,2.39 2.39,2.39s2.39,-1.07 2.39,-2.39s-1.07,-2.39 -2.39,-2.39s-2.39,1.07 -2.39,2.39z" fill="#707FFF" id="svg_95"/>
      </g>
     </g>
    </g>
   </g>
   <g id="svg_96">
    <g id="svg_97">
     <g id="svg_98">
      <g id="svg_99">
       <g id="svg_100">
        <g id="svg_101">
         <g id="svg_102">
          <path d="m120.37,160.89l0,257.91c0,8.09 6.56,14.64 14.64,14.64l128.44,0c4.06,0 7.73,-1.65 10.38,-4.32c2.63,-2.65 4.25,-6.29 4.25,-10.32l0,-257.91c0,-8.09 -6.55,-14.64 -14.63,-14.64l-128.44,0c-2.39,0 -4.65,0.57 -6.64,1.59c-4.75,2.42 -8,7.35 -8,13.05z" fill="#3B3E7D" id="svg_103"/>
         </g>
        </g>
        <g id="svg_104">
         <g id="svg_105">
          <path d="m125.83,160.89l0,257.91c0,8.09 6.55,14.64 14.63,14.64l128.44,0c4.06,0 7.73,-1.65 10.39,-4.32c2.62,-2.65 4.25,-6.29 4.25,-10.32l0,-257.91c0,-8.09 -6.56,-14.64 -14.64,-14.64l-128.44,0c-2.39,0 -4.64,0.57 -6.64,1.59c-4.75,2.42 -7.99,7.35 -7.99,13.05z" fill="#18285D" id="svg_106"/>
         </g>
        </g>
        <g id="svg_107">
         <g id="svg_108">
          <path d="m123.05,209.68l-1.66,0c-2.09,0 -3.79,-1.69 -3.79,-3.78l0,-15.73c0,-2.09 1.7,-3.78 3.79,-3.78l1.66,0l0,23.29z" fill="#18285D" id="svg_109"/>
         </g>
        </g>
        <g id="svg_110">
         <g id="svg_111">
          <path d="m123.05,240.15l-1.66,0c-2.09,0 -3.79,-1.7 -3.79,-3.79l0,-15.72c0,-2.09 1.7,-3.79 3.79,-3.79l1.66,0l0,23.3z" fill="#18285D" id="svg_112"/>
         </g>
        </g>
        <g id="svg_113">
         <g id="svg_114">
          <path d="m283.54,209.68l1.3,0c1.64,0 2.96,-1.33 2.96,-2.96l0,-17.37c0,-1.63 -1.32,-2.96 -2.96,-2.96l-1.3,0l0,23.29z" fill="#18285D" id="svg_115"/>
         </g>
        </g>
        <g id="svg_116">
         <g id="svg_117">
          <path d="m276.23,160l0,259.69c0,0.89 -0.18,1.74 -0.51,2.52c-0.98,2.31 -3.27,3.92 -5.93,3.92l-130.21,0c-3.56,0 -6.45,-2.88 -6.45,-6.45l0,-259.68c0,-0.36 0.03,-0.72 0.09,-1.06c0.36,-2.19 1.84,-4.01 3.82,-4.88c0.42,-0.17 0.85,-0.31 1.3,-0.39c0.4,-0.08 0.81,-0.12 1.24,-0.12l130.2,0c3.57,0 6.45,2.89 6.45,6.45z" fill="none" id="svg_118"/>
         </g>
        </g>
        <path d="m276.23,160l0,13.31l-143.1,0l0,-13.31c0,-0.36 0.03,-0.72 0.09,-1.06c0.36,-2.19 1.84,-4.01 3.82,-4.88c0.42,-0.17 0.85,-0.31 1.3,-0.39c0.4,-0.08 0.81,-0.12 1.24,-0.12l130.2,0c3.57,0 6.45,2.89 6.45,6.45z" fill="#DBE6F7" id="svg_119"/>
        <g id="svg_120">
         <g id="svg_121">
          <path d="m253.64,153.54l-6.64,10.11c-1.85,2.81 -5,4.51 -8.37,4.51l-64.17,0c-3.38,0 -6.52,-1.69 -8.37,-4.51l-6.64,-10.11c0,-1.04 0.85,-1.9 1.9,-1.9l90.38,0c1.05,0 1.91,0.86 1.91,1.9z" fill="#18285D" id="svg_122"/>
         </g>
         <path d="m229.31,160.85l-55.71,0c-0.92,0 -1.67,-0.75 -1.67,-1.67l0,-0.73c0,-0.92 0.75,-1.67 1.67,-1.67l55.71,0c0.92,0 1.67,0.75 1.67,1.67l0,0.73c0,0.92 -0.75,1.67 -1.67,1.67z" fill="#DBE6F7" id="svg_123" opacity="0.3"/>
         <path d="m241.76,158.68c0,1.35 -1.1,2.44 -2.44,2.44s-2.44,-1.09 -2.44,-2.44c0,-1.34 1.09,-2.44 2.44,-2.44s2.44,1.09 2.44,2.44z" fill="#DBE6F7" id="svg_124" opacity="0.3"/>
        </g>
       </g>
      </g>
     </g>
     <g id="svg_125">
      <g id="svg_126">
       <g id="svg_127">
        <path d="m145.36,333.26l0,0c0,1.19 0.97,2.16 2.16,2.16l51.48,0c1.19,0 2.15,-0.97 2.15,-2.16l0,0c0,-1.19 -0.96,-2.15 -2.15,-2.15l-51.48,0c-1.19,0 -2.16,0.96 -2.16,2.15z" fill="#DBE6F7" id="svg_128"/>
        <path d="m210.66,333.26l0,0c0,1.19 0.96,2.16 2.15,2.16l51.49,0c1.19,0 2.15,-0.97 2.15,-2.16l0,0c0,-1.19 -0.96,-2.15 -2.15,-2.15l-51.49,0c-1.19,0 -2.15,0.96 -2.15,2.15z" fill="#DBE6F7" id="svg_129"/>
       </g>
       <g id="svg_130">
        <path d="m145.36,345.27l0,0c0,1.19 0.97,2.15 2.16,2.15l51.48,0c1.19,0 2.15,-0.96 2.15,-2.15l0,0c0,-1.19 -0.96,-2.15 -2.15,-2.15l-51.48,0c-1.19,0 -2.16,0.96 -2.16,2.15z" fill="#DBE6F7" id="svg_131"/>
        <path d="m210.66,345.27l0,0c0,1.19 0.96,2.15 2.15,2.15l51.49,0c1.19,0 2.15,-0.96 2.15,-2.15l0,0c0,-1.19 -0.96,-2.15 -2.15,-2.15l-51.49,0c-1.19,0 -2.15,0.96 -2.15,2.15z" fill="#DBE6F7" id="svg_132"/>
       </g>
       <g id="svg_133">
        <path d="m145.36,357.28l0,0c0,1.19 0.97,2.15 2.16,2.15l51.48,0c1.19,0 2.15,-0.96 2.15,-2.15l0,0c0,-1.19 -0.96,-2.16 -2.15,-2.16l-51.48,0c-1.19,0 -2.16,0.97 -2.16,2.16z" fill="#DBE6F7" id="svg_134"/>
        <path d="m210.66,357.28l0,0c0,1.19 0.96,2.15 2.15,2.15l51.49,0c1.19,0 2.15,-0.96 2.15,-2.15l0,0c0,-1.19 -0.96,-2.16 -2.15,-2.16l-51.49,0c-1.19,0 -2.15,0.97 -2.15,2.16z" fill="#DBE6F7" id="svg_135"/>
       </g>
       <g id="svg_136">
        <path d="m145.36,369.29l0,0c0,1.18 0.97,2.15 2.16,2.15l51.48,0c1.19,0 2.15,-0.96 2.15,-2.15l0,0c0,-1.19 -0.96,-2.16 -2.15,-2.16l-51.48,0c-1.19,0 -2.16,0.97 -2.16,2.16z" fill="#DBE6F7" id="svg_137"/>
        <path d="m210.66,369.29l0,0c0,1.18 0.96,2.15 2.15,2.15l51.49,0c1.19,0 2.15,-0.96 2.15,-2.15l0,0c0,-1.19 -0.96,-2.16 -2.15,-2.16l-51.49,0c-1.19,0 -2.15,0.97 -2.15,2.16z" fill="#DBE6F7" id="svg_138"/>
       </g>
      </g>
     </g>
     <g id="svg_139">
      <path d="m178.3,397.28l-29.26,0c-2.02,0 -3.66,-1.63 -3.66,-3.65l0,-3.58c0,-2.02 1.64,-3.66 3.66,-3.66l29.26,0c2.02,0 3.66,1.64 3.66,3.66l0,3.58c0,2.02 -1.64,3.65 -3.66,3.65z" fill="#DBE6F7" id="svg_140"/>
      <path d="m220.87,397.28l-29.26,0c-2.02,0 -3.66,-1.63 -3.66,-3.65l0,-3.58c0,-2.02 1.64,-3.66 3.66,-3.66l29.26,0c2.02,0 3.66,1.64 3.66,3.66l0,3.58c0,2.02 -1.64,3.65 -3.66,3.65z" fill="#DBE6F7" id="svg_141"/>
      <path d="m262.79,397.28l-29.26,0c-2.02,0 -3.66,-1.63 -3.66,-3.65l0,-3.58c0,-2.02 1.64,-3.66 3.66,-3.66l29.26,0c2.02,0 3.66,1.64 3.66,3.66l0,3.58c0,2.02 -1.64,3.65 -3.66,3.65z" fill="#DBE6F7" id="svg_142"/>
     </g>
    </g>
    <g id="svg_143">
     <polygon fill="#DBE6F7" id="svg_144" points="276.232,212.03 276.232,310.091 153.062,310.091 153.062,212.03 158.726,212.03      158.674,211.975 158.736,212.03    "/>
     <g id="svg_145">
      <g id="svg_146">
       <rect fill="#1D38C8" height="98.06" id="svg_147" width="141.96" x="159.93" y="204.45"/>
       <rect fill="#4F60D9" height="98.06" id="svg_148" width="141.96" x="165.61" y="204.45"/>
       <path d="m165.54,204.4l65.73,68.42c2.89,3 7.69,3 10.57,0l65.73,-68.42l-66.14,58.87c-2.78,2.47 -6.97,2.47 -9.74,0l-66.15,-58.87z" fill="#1D38C8" id="svg_149"/>
       <g id="svg_150">
        <polygon fill="#1D38C8" id="svg_151" points="222.917,255.202 169.725,302.515 165.613,302.515 165.613,300.015 219.859,251.766               "/>
       </g>
       <g id="svg_152">
        <polygon fill="#1D38C8" id="svg_153" points="307.574,300.347 307.574,302.515 303.09,302.515 249.897,255.202 252.955,251.766               "/>
       </g>
       <path d="m165.61,204.45l66.3,58.97c2.67,2.37 6.69,2.37 9.36,0l66.3,-58.97l-141.96,0z" fill="#707FFF" id="svg_154"/>
       <g id="svg_155" opacity="0.5">
        <path d="m234.87,213.63l-49.13,0c-1.64,0 -2.96,-1.32 -2.96,-2.96c0,-1.63 1.32,-2.96 2.96,-2.96l49.13,0c1.64,0 2.96,1.33 2.96,2.96c0,1.64 -1.32,2.96 -2.96,2.96z" fill="#707FFF" id="svg_156"/>
       </g>
       <g id="svg_157" opacity="0.5">
        <path d="m249.91,213.63l-4.97,0c-1.64,0 -2.96,-1.32 -2.96,-2.96c0,-1.63 1.32,-2.96 2.96,-2.96l4.97,0c1.64,0 2.96,1.33 2.96,2.96c0,1.64 -1.32,2.96 -2.96,2.96z" fill="#707FFF" id="svg_158"/>
       </g>
      </g>
     </g>
    </g>
    <g id="svg_159">
     <g id="svg_160">
      <g id="svg_161">
       <path d="m285.3,212.71l-14.98,0c-3.97,0 -7.19,-3.22 -7.19,-7.19l0,-14.97c0,-3.97 3.22,-7.19 7.19,-7.19l14.98,0c3.97,0 7.19,3.22 7.19,7.19l0,14.97c0,3.98 -3.22,7.19 -7.19,7.19z" fill="#1D38C8" id="svg_162"/>
      </g>
     </g>
     <g id="svg_163">
      <g id="svg_164">
       <path d="m287.89,212.71l-14.97,0c-3.97,0 -7.19,-3.22 -7.19,-7.19l0,-14.97c0,-3.97 3.22,-7.19 7.19,-7.19l14.97,0c3.97,0 7.19,3.22 7.19,7.19l0,14.97c0,3.98 -3.22,7.19 -7.19,7.19z" fill="#4F60D9" id="svg_165"/>
      </g>
     </g>
     <g id="svg_166">
      <text fill="none" font-family="'Montserrat-Black'" font-size="23.83px" id="svg_167" transform="matrix(1 0 0 1 276.665 206.9802)">!</text>
     </g>
    </g>
   </g>
   <g id="svg_168">
    <g id="svg_169">
     <g id="svg_170">
      <polygon fill="#FDA893" id="svg_171" points="335.272,416.816 334.712,426.907 342.899,427.086 343.9,416.485     "/>
      <g id="svg_172">
       <path d="m337.96,425.49c0,0 4.21,-0.96 5.37,-0.89c1.15,0.07 8.55,9 11.13,9.61c4.69,1.1 4.42,8.47 1.53,8.73c-8.35,0.74 -22.42,-3.31 -22.42,-3.31s-0.95,-9.5 -0.27,-12.45c0.68,-2.94 2.31,-0.91 4.66,-1.69z" fill="#707FFF" id="svg_173"/>
       <g id="svg_174">
        <g id="svg_175">
         <path d="m344.53,433.82c-0.15,0.03 -0.31,0 -0.44,-0.1c-0.26,-0.19 -0.31,-0.55 -0.13,-0.8c0.07,-0.09 1.56,-2.12 3.33,-2.77c2.36,-0.88 3.96,0.58 4.03,0.64c0.23,0.21 0.24,0.58 0.03,0.81c-0.22,0.23 -0.58,0.25 -0.82,0.03c-0.04,-0.04 -1.16,-1.03 -2.84,-0.4c-1.44,0.53 -2.78,2.35 -2.79,2.37c-0.1,0.12 -0.23,0.2 -0.37,0.22z" fill="#FEFDFF" id="svg_176"/>
        </g>
        <g id="svg_177">
         <path d="m343.01,432.02c-0.15,0.03 -0.31,-0.01 -0.45,-0.1c-0.25,-0.19 -0.31,-0.55 -0.12,-0.8c0.06,-0.09 1.55,-2.12 3.33,-2.78c2.36,-0.87 3.96,0.58 4.02,0.65c0.24,0.21 0.25,0.58 0.03,0.81c-0.21,0.23 -0.58,0.25 -0.81,0.03c-0.05,-0.04 -1.16,-1.03 -2.84,-0.41c-1.46,0.54 -2.79,2.35 -2.8,2.37c-0.09,0.13 -0.22,0.2 -0.36,0.23z" fill="#FEFDFF" id="svg_178"/>
        </g>
        <g id="svg_179">
         <path d="m346.7,435.39c-0.15,0.02 -0.31,-0.01 -0.45,-0.1c-0.25,-0.19 -0.31,-0.55 -0.12,-0.81c0.06,-0.08 1.55,-2.11 3.33,-2.77c2.36,-0.88 3.96,0.58 4.02,0.64c0.24,0.22 0.25,0.58 0.03,0.82c-0.21,0.23 -0.58,0.24 -0.81,0.02c-0.05,-0.03 -1.16,-1.02 -2.84,-0.4c-1.46,0.54 -2.79,2.35 -2.8,2.37c-0.09,0.13 -0.22,0.2 -0.36,0.23z" fill="#FEFDFF" id="svg_180"/>
        </g>
       </g>
      </g>
     </g>
     <g id="svg_181">
      <g id="svg_182">
       <path d="m365.38,293.85c0,0 -0.17,2.37 -0.48,6.3c-0.08,1.04 -0.17,2.19 -0.27,3.44c-1.06,13.19 -3.11,37.04 -5.35,53.96c-3.14,23.72 -13.03,62.7 -13.03,62.7l-10.21,-0.35l-1.01,-0.04l-2.42,-0.08c0,0 1.7,-24.66 3.87,-46.07c1.43,-14.12 2.28,-47.53 2.69,-68.63c0.21,-10.88 0.31,-18.49 0.31,-18.49l25.9,7.26z" fill="#3B3E7D" id="svg_183"/>
      </g>
     </g>
     <g id="svg_184">
      <path d="m365.38,293.85c0,0 -0.17,2.37 -0.48,6.3c-0.08,1.04 -0.17,2.19 -0.27,3.44c-4.71,0.88 -17.66,1.49 -25.46,1.49c0.21,-10.88 0.31,-18.49 0.31,-18.49l25.9,7.26z" fill="#18285D" id="svg_185"/>
     </g>
     <g id="svg_186">
      <g id="svg_187">
       <path d="m344.98,299.98c-0.01,0.81 -0.95,77.68 -8.94,119.92l-1.01,-0.04c8,-42.11 8.94,-119.09 8.95,-119.89l1,0.01z" fill="#18285D" id="svg_188"/>
      </g>
     </g>
    </g>
    <g id="svg_189">
     <g id="svg_190">
      <polygon fill="#FDA893" id="svg_191" points="399.303,418.754 398.968,427.857 390.646,427.417 390.458,417.75     "/>
      <g id="svg_192">
       <g id="svg_193">
        <g id="svg_194">
         <path d="m396.85,427.44c0,0 1.81,-2.36 3.22,-2.24c1.41,0.12 12.18,8.95 15.9,9.72c3.72,0.77 2.95,3.5 2.25,4.9c-0.71,1.39 -29.77,-0.97 -29.77,-0.97s-0.67,-8.67 0.32,-11.31c0.99,-2.63 5.15,0.48 8.08,-0.1z" fill="#707FFF" id="svg_195"/>
         <g id="svg_196">
          <g id="svg_197">
           <path d="m402.78,433.57c-0.13,0.04 -0.28,0.03 -0.41,-0.05c-0.25,-0.15 -0.33,-0.47 -0.18,-0.72c0.04,-0.08 1.21,-2.04 2.76,-2.79c2.05,-1 3.63,0.17 3.7,0.22c0.22,0.18 0.27,0.51 0.09,0.74c-0.17,0.23 -0.5,0.27 -0.73,0.09c-0.04,-0.03 -1.14,-0.82 -2.6,-0.11c-1.26,0.61 -2.31,2.37 -2.32,2.38c-0.08,0.12 -0.19,0.21 -0.31,0.24z" fill="#FEFDFF" id="svg_198"/>
          </g>
          <g id="svg_199">
           <path d="m401.24,432.08c-0.13,0.03 -0.28,0.02 -0.41,-0.06c-0.25,-0.14 -0.33,-0.46 -0.18,-0.71c0.05,-0.08 1.22,-2.05 2.76,-2.8c2.06,-1 3.63,0.18 3.7,0.23c0.23,0.17 0.27,0.5 0.09,0.73c-0.17,0.23 -0.5,0.28 -0.73,0.1c-0.04,-0.03 -1.14,-0.83 -2.6,-0.12c-1.27,0.62 -2.31,2.37 -2.32,2.39c-0.07,0.12 -0.18,0.2 -0.31,0.24z" fill="#FEFDFF" id="svg_200"/>
          </g>
          <g id="svg_201">
           <path d="m404.87,434.8c-0.13,0.04 -0.28,0.02 -0.41,-0.05c-0.25,-0.15 -0.33,-0.47 -0.18,-0.72c0.05,-0.08 1.22,-2.05 2.76,-2.8c2.06,-1 3.63,0.18 3.7,0.23c0.23,0.18 0.27,0.5 0.1,0.73c-0.18,0.23 -0.51,0.28 -0.74,0.1c-0.04,-0.03 -1.14,-0.83 -2.6,-0.12c-1.26,0.62 -2.31,2.37 -2.32,2.39c-0.07,0.12 -0.18,0.2 -0.31,0.24z" fill="#FEFDFF" id="svg_202"/>
          </g>
         </g>
        </g>
       </g>
      </g>
     </g>
     <g id="svg_203">
      <path d="m400.82,421.13l-8.46,-0.63l-1.01,-0.07l-2.05,-0.15c0,0 -5.2,-49.46 -6.81,-62.63c-1.41,-11.45 -7.97,-37.16 -12.23,-53.16c-1.21,-4.54 -2.23,-8.3 -2.9,-10.73c-0.52,-1.91 -0.82,-3 -0.82,-3l28.28,-2.74c0,0 0.08,0.62 0.21,1.74c0.27,2.29 0.8,6.67 1.44,12.18c1.77,15 4.45,38.34 5.49,50.22c2.67,30.6 -1.14,68.97 -1.14,68.97z" fill="#3B3E7D" id="svg_204"/>
     </g>
     <g id="svg_205">
      <path d="m396.47,301.94l-26.21,2.55c-1.21,-4.55 -2.23,-8.3 -2.9,-10.73l27.67,-4c0.27,2.29 0.8,6.68 1.44,12.18z" fill="#18285D" id="svg_206"/>
     </g>
     <g id="svg_207">
      <g id="svg_208">
       <path d="m392.36,420.5l-1.01,-0.07c-0.49,-15.29 -1.99,-53.49 -5.05,-69.68c-3.86,-20.41 -12.71,-50.13 -12.8,-50.43l0.96,-0.29c0.09,0.3 8.96,30.07 12.82,50.54c3.08,16.29 4.6,54.67 5.08,69.93z" fill="#18285D" id="svg_209"/>
      </g>
     </g>
    </g>
    <g id="svg_210">
     <path d="m396.22,218.31c0.44,3.85 0.91,7.55 1.32,10.65c0.66,5 1.17,8.43 1.17,8.43l4.05,13.06c1.39,4.46 6.44,6.62 10.63,4.54c0.07,-0.03 0.14,-0.07 0.22,-0.1c7.23,-3.71 2.72,-17.98 2.72,-17.98l-1.39,-0.07c-0.62,-1.56 -2.27,-5.53 -4.38,-10.52c-0.25,-0.62 -0.52,-1.25 -0.79,-1.89c-0.45,-1.06 -0.91,-2.16 -1.38,-3.28c-0.67,-1.59 -1.36,-3.22 -2.06,-4.87c-5.16,-12.19 -10.65,-25.09 -10.65,-25.09c-1.97,1.01 -0.86,14.85 0.54,27.12z" fill="#FDA893" id="svg_211"/>
     <path d="m396.22,218.31c0.44,3.85 0.91,7.55 1.32,10.65c5.36,-1.81 8.88,-5.29 10.85,-7.81c-0.67,-1.59 -1.36,-3.22 -2.07,-4.87l-10.1,2.03z" fill="#FD857D" id="svg_212"/>
     <g id="svg_213">
      <path d="m407.52,241.81c0.03,0 0.06,0 0.09,0c0.28,-0.01 0.53,-0.22 0.56,-0.51c0.86,-6.86 1.77,-11.94 2.39,-14.98c-0.25,-0.62 -0.52,-1.25 -0.79,-1.89c-0.58,2.69 -1.71,8.41 -2.75,16.73c-0.04,0.31 0.18,0.6 0.5,0.65z" fill="#FD857D" id="svg_214"/>
     </g>
     <path d="m412.2,215.75c0,0 -1.17,1.45 -3.22,3.07c-2.49,1.96 -7.1,4.42 -11.71,4.58c-0.97,-16.38 -1.92,-32.06 -3.21,-36.1c2.19,2.57 13.3,16.83 18.14,28.45z" fill="#707FFF" id="svg_215"/>
     <path d="m408.58,242.11c0,0 0.49,-16.44 3.88,-20.05c3.38,-3.6 6.54,-5.03 9.83,-5.02c3.28,0.01 6.38,0.32 6.23,1.68c0,0 7.5,-1.38 10.93,0.46c3.43,1.85 -9.85,3.99 -13.81,4.22c-3.96,0.23 -5.98,2.51 -6.06,4.88c-0.09,2.36 -1.87,18.07 -1.87,18.07l-9.13,-4.24z" fill="#FDA893" id="svg_216"/>
    </g>
    <g id="svg_217">
     <g id="svg_218">
      <path d="m400,294.06c-22.1,6.2 -44.35,6.75 -66.78,1.7c-0.23,-6.36 -0.68,-27.73 -0.79,-49.78c0,-1.16 -0.01,-2.33 -0.01,-3.5l0,-1.68c-0.01,-0.58 -0.01,-1.17 -0.01,-1.75c0,-0.59 0,-1.17 -0.01,-1.75c0.01,-0.58 0,-1.16 0.01,-1.75c-0.01,-0.56 0,-1.12 -0.01,-1.68c0,-0.58 0,-1.17 0.01,-1.74c0,-0.58 0.01,-1.17 0.01,-1.75c0,-0.59 0,-1.17 0.01,-1.75c0,-0.56 0,-1.12 0.01,-1.68c0,-1.11 0.01,-2.23 0.02,-3.32l0,-0.17c0.01,-0.75 0.01,-1.5 0.03,-2.24c0.19,-17.2 0.78,-31.02 2.1,-32.94c3.19,-4.63 18.13,-11.75 22.69,-15.12l0.01,0.73c0,0 3,3.76 6.26,3.39c2.96,-0.32 5.15,-3.82 5.51,-4.45c2.35,1.57 7.74,4.06 12.98,6.73c5.23,2.67 10.3,5.5 12.02,7.74c1.46,1.92 2.67,16.55 3.61,34.5l0,0.05c0.02,0.34 0.03,0.67 0.05,1.01l0,0.05c0.01,0.25 0.03,0.51 0.04,0.78c0.03,0.53 0.06,1.06 0.08,1.6c0.03,0.55 0.06,1.11 0.08,1.67c0.03,0.58 0.05,1.16 0.09,1.75c0.02,0.58 0.04,1.16 0.08,1.75c0.02,0.57 0.05,1.15 0.07,1.74c0.03,0.55 0.05,1.11 0.07,1.67c0.03,0.59 0.05,1.17 0.08,1.76c0.02,0.57 0.05,1.15 0.07,1.74c0.02,0.58 0.05,1.17 0.07,1.75c0.03,0.55 0.05,1.11 0.07,1.67c0.04,1.17 0.09,2.33 0.13,3.5c0.82,21.97 1.27,43.35 1.35,49.77z" fill="#707FFF" id="svg_219"/>
     </g>
     <g id="svg_220">
      <path d="m353.98,189.97c-0.23,-0.04 -0.4,-0.23 -0.42,-0.47c-0.01,-0.28 0.2,-0.53 0.49,-0.55c13.05,-0.84 17.53,-10.69 17.58,-10.79c0.11,-0.26 0.42,-0.38 0.68,-0.26c0.26,0.11 0.38,0.41 0.26,0.68c-0.05,0.1 -1.19,2.68 -4.05,5.39c-2.62,2.49 -7.26,5.55 -14.41,6.01c-0.05,0.01 -0.09,0 -0.13,-0.01z" fill="#4F60D9" id="svg_221"/>
     </g>
     <g id="svg_222">
      <path d="m398.09,230.46l-65.68,1.67c0,-0.58 0,-1.16 0.01,-1.75c0,-0.58 0,-1.17 0.01,-1.74l65.49,-1.67c0.03,0.57 0.05,1.16 0.09,1.74c0.02,0.58 0.05,1.17 0.08,1.75z" fill="#4F60D9" id="svg_223"/>
      <path d="m398.38,237.37l-65.97,1.68c0,-0.58 0,-1.17 0,-1.74c0,-0.59 -0.01,-1.17 0,-1.76l65.82,-1.67c0.03,0.58 0.05,1.17 0.08,1.75c0.02,0.57 0.05,1.16 0.07,1.74z" fill="#4F60D9" id="svg_224"/>
      <path d="m398.65,244.29l-66.22,1.69c0,-1.16 -0.01,-2.33 -0.01,-3.5l66.1,-1.68c0.04,1.17 0.09,2.33 0.13,3.49z" fill="#4F60D9" id="svg_225"/>
     </g>
     <g id="svg_226">
      <path d="m390.72,212.67c1.98,2.54 4.92,8.32 6.25,11c0.18,0.37 0.33,0.68 0.44,0.91c0.15,0.31 0.23,0.49 0.24,0.5c0.04,0.09 0.11,0.16 0.19,0.21c-0.03,-0.53 -0.05,-1.07 -0.08,-1.6c-0.01,-0.26 -0.03,-0.52 -0.04,-0.78l0,-0.05c-0.27,-0.54 -0.59,-1.18 -0.95,-1.89c-1.5,-2.93 -3.64,-6.89 -5.23,-8.94c-0.18,-0.22 -0.5,-0.26 -0.73,-0.09c-0.23,0.18 -0.26,0.5 -0.09,0.73z" fill="#4F60D9" id="svg_227"/>
     </g>
     <g id="svg_228">
      <path d="m379.52,277.25c0.27,-0.01 0.49,-0.22 0.5,-0.5c0.01,-0.28 -0.21,-0.52 -0.49,-0.53c-14.56,-0.59 -23.41,-7.73 -28.27,-13.61c-5.29,-6.41 -7.16,-12.76 -7.17,-12.82c-0.08,-0.28 -0.37,-0.44 -0.64,-0.36c-0.28,0.08 -0.43,0.37 -0.36,0.64c0.08,0.27 1.93,6.59 7.34,13.16c5,6.06 14.1,13.42 29.06,14.02c0.01,0 0.02,0 0.03,0z" fill="#4F60D9" id="svg_229"/>
     </g>
     <g id="svg_230">
      <path d="m371.48,268.22c0.23,0 0.44,-0.16 0.49,-0.39c0.07,-0.28 -0.1,-0.56 -0.38,-0.63c-12.71,-3.09 -15.41,-13.57 -15.44,-13.68c-0.07,-0.27 -0.35,-0.44 -0.62,-0.37c-0.28,0.06 -0.45,0.34 -0.38,0.62c0.02,0.11 0.71,2.85 3.05,6.01c2.15,2.91 6.18,6.73 13.15,8.43c0.04,0.01 0.09,0.01 0.13,0.01z" fill="#4F60D9" id="svg_231"/>
     </g>
    </g>
    <g id="svg_232">
     <path d="m339.21,210.86c-1.92,2.59 -4.71,8.45 -5.97,11.16c-0.17,0.37 -0.31,0.69 -0.42,0.92c-0.14,0.31 -0.22,0.49 -0.22,0.51c-0.03,0.07 -0.08,0.13 -0.14,0.18l0,-0.17c0.01,-0.75 0.01,-1.5 0.03,-2.24c0.24,-0.55 0.55,-1.2 0.88,-1.9c1.43,-2.97 3.47,-6.98 5.01,-9.07c0.17,-0.23 0.49,-0.28 0.72,-0.11c0.23,0.17 0.28,0.5 0.11,0.72z" fill="#4F60D9" id="svg_233"/>
    </g>
    <g id="svg_234">
     <g id="svg_235">
      <path d="m402.8,220.6l44.78,-1.14c1.28,-0.03 2.29,-1.09 2.25,-2.37l-0.03,-1.32c-0.03,-1.28 -1.09,-2.29 -2.37,-2.26l-44.78,1.14c-1.28,0.04 -2.29,1.1 -2.26,2.38l0.04,1.32c0.03,1.28 1.09,2.28 2.37,2.25z" fill="#18285D" id="svg_236"/>
     </g>
     <g id="svg_237">
      <path d="m449.88,219.4l8.4,-35.01c0.47,-1.97 -1.05,-3.85 -3.07,-3.8l-20.43,0.52c-1.38,0.04 -2.57,0.99 -2.91,2.32l-9.3,36.67l27.31,-0.7z" fill="#3B3E7D" id="svg_238"/>
     </g>
     <g id="svg_239">
      <path d="m431.87,183.44l-9.22,36.36l-2.33,0.05l9.22,-36.36c0.34,-1.33 1.52,-2.28 2.9,-2.32l2.34,-0.06c-1.38,0.04 -2.57,0.99 -2.91,2.33z" fill="#18285D" id="svg_240"/>
     </g>
     <g id="svg_241" opacity="0.5">
      <path d="m437.6,201.94c-0.47,2.31 1,4.13 3.3,4.07c2.29,-0.06 4.53,-1.98 5.01,-4.28c0.47,-2.31 -1.01,-4.13 -3.3,-4.08c-2.3,0.06 -4.54,1.98 -5.01,4.29z" fill="#3B3E7D" id="svg_242"/>
     </g>
    </g>
    <g id="svg_243">
     <g id="svg_244">
      <path d="m348.23,149.35c0,0 -1.36,0.7 -1.75,-1.97c-0.39,-2.66 0.69,-3.14 -0.11,-4.41c-0.8,-1.26 -1.36,-2.91 -0.1,-4.1c1.25,-1.19 -1.4,-4.1 0.05,-5.62c1.45,-1.51 3.85,-1.88 4.76,-3.58c0.92,-1.69 2.36,-4.92 6.92,-4.97c4.55,-0.05 6.1,3.57 8.48,2.55c2.38,-1.02 4.14,-1.58 6.98,0.34c2.84,1.91 -0.05,4.68 2.58,5.96c2.64,1.29 0.67,5.25 3.69,7.48c2.28,1.69 0.12,8.54 -4.42,7.63c-4.55,-0.91 -27.08,0.69 -27.08,0.69z" fill="#18285D" id="svg_245"/>
     </g>
     <g id="svg_246">
      <path d="m349.38,150.41c0,0 -2.58,-3.27 -4.37,-0.47c-1.79,2.81 1.05,10.89 5.55,8.78l-1.18,-8.31z" fill="#FD857D" id="svg_247"/>
      <g id="svg_248">
       <path d="m349.5,156.23c-0.17,0 -0.32,-0.1 -0.38,-0.27c-0.77,-2.5 -3.4,-3.45 -3.43,-3.46c-0.2,-0.07 -0.3,-0.29 -0.23,-0.49c0.07,-0.2 0.29,-0.31 0.49,-0.24c0.12,0.04 3.02,1.09 3.91,3.96c0.06,0.21 -0.05,0.42 -0.26,0.48c-0.03,0.01 -0.06,0.02 -0.1,0.02z" fill="#F05B56" id="svg_249"/>
      </g>
      <g id="svg_250">
       <path d="m346.84,155.03c-0.07,0 -0.15,-0.01 -0.21,-0.06c-0.18,-0.11 -0.24,-0.34 -0.13,-0.52c0.02,-0.03 0.46,-0.75 1.41,-1.2c0.2,-0.1 0.43,-0.02 0.52,0.18c0.09,0.19 0.01,0.42 -0.18,0.51c-0.74,0.35 -1.09,0.9 -1.09,0.91c-0.07,0.11 -0.2,0.18 -0.32,0.18z" fill="#F05B56" id="svg_251"/>
      </g>
     </g>
     <g id="svg_252">
      <path d="m375.17,149.75c0,0 2.41,-3.4 4.35,-0.69c1.93,2.71 -0.5,10.93 -5.1,9.06l0.75,-8.37z" fill="#FD857D" id="svg_253"/>
      <g id="svg_254">
       <path d="m375.35,155.57c0.17,0 0.32,-0.12 0.36,-0.29c0.64,-2.53 3.22,-3.62 3.25,-3.63c0.2,-0.08 0.29,-0.3 0.21,-0.5c-0.08,-0.2 -0.31,-0.29 -0.5,-0.21c-0.12,0.05 -2.97,1.24 -3.7,4.15c-0.06,0.21 0.07,0.42 0.27,0.47c0.04,0.01 0.07,0.01 0.11,0.01z" fill="#F05B56" id="svg_255"/>
      </g>
      <g id="svg_256">
       <g id="svg_257">
        <path d="m377.95,154.24c0.07,0 0.14,-0.02 0.2,-0.07c0.18,-0.12 0.22,-0.36 0.1,-0.53c-0.02,-0.03 -0.5,-0.72 -1.47,-1.13c-0.19,-0.08 -0.42,0.01 -0.5,0.21c-0.08,0.19 0.01,0.42 0.2,0.5c0.76,0.31 1.14,0.84 1.14,0.85c0.07,0.11 0.2,0.17 0.33,0.17z" fill="#F05B56" id="svg_258"/>
       </g>
      </g>
     </g>
     <path d="m368.82,165.17l0.21,8.11c0,0 -2.31,4.18 -5.57,4.55c-3.26,0.36 -6.26,-3.4 -6.26,-3.4l-0.21,-8.39l11.83,-0.87z" fill="#FDA893" id="svg_259"/>
     <path d="m368.82,165.17l0.09,3.6c-2.13,2.49 -6,3.19 -11.79,2.49l-0.13,-5.22l11.83,-0.87z" fill="#FD857D" id="svg_260"/>
     <path d="m376.83,144.15c-0.07,3.15 -0.27,7.1 -0.79,10.26c-0.13,0.79 -0.28,1.53 -0.45,2.2c-1.55,6.01 -5.55,16.36 -17.6,12.4c-5.32,-1.75 -7.92,-7.56 -9.16,-13.51c-0.84,-4.03 -1.06,-8.13 -1.08,-11.06c-0.02,-2.99 1.55,-5.77 4.11,-7.31c6.95,-4.17 14.42,-2.87 19.36,-1.12c3.44,1.22 5.7,4.5 5.61,8.14z" fill="#FDA893" id="svg_261"/>
     <g id="svg_262">
      <path d="m357.55,151.26c0.02,0.86 -0.4,1.58 -0.95,1.59c-0.55,0.01 -1.02,-0.68 -1.04,-1.54s0.41,-1.58 0.96,-1.59c0.55,-0.02 1.01,0.67 1.03,1.54z" fill="#18285D" id="svg_263"/>
     </g>
     <g id="svg_264">
      <path d="m369.51,150.95c0.02,0.87 -0.4,1.58 -0.95,1.6c-0.55,0.01 -1.02,-0.68 -1.04,-1.55c-0.02,-0.86 0.41,-1.57 0.96,-1.59c0.55,-0.01 1.01,0.68 1.03,1.54z" fill="#18285D" id="svg_265"/>
     </g>
     <g id="svg_266">
      <path d="m371.88,145.73c0,0 -4.16,-1.52 -7.29,-0.07l0.36,1.76c0,0 4.64,-0.52 7.01,0.37c0.19,-0.68 0.2,-1.37 -0.08,-2.06z" fill="#18285D" id="svg_267"/>
     </g>
     <g id="svg_268">
      <path d="m352.31,146.24c0,0 4.11,-1.74 7.33,-0.45l-0.27,1.79c0,0 -4.69,-0.28 -7.03,0.74c-0.23,-0.68 -0.28,-1.37 -0.03,-2.08z" fill="#18285D" id="svg_269"/>
     </g>
     <g id="svg_270">
      <path d="m362.92,157.5c-0.64,0.09 -1.32,-0.07 -1.42,-0.09c-0.21,-0.06 -0.33,-0.27 -0.28,-0.47c0.05,-0.21 0.26,-0.33 0.47,-0.28c0.36,0.09 1.22,0.2 1.55,-0.07c0.06,-0.05 0.14,-0.14 0.14,-0.38c-0.05,-1.35 -1.03,-5.76 -1.04,-5.81c-0.05,-0.2 0.08,-0.41 0.29,-0.46c0.21,-0.04 0.41,0.09 0.46,0.29c0.04,0.19 1.01,4.53 1.06,5.95c0.02,0.54 -0.22,0.85 -0.43,1.01c-0.22,0.18 -0.51,0.28 -0.8,0.31z" fill="#FD857D" id="svg_271"/>
     </g>
     <path d="m357.4,159.78c0.35,1.58 1.48,4.47 5,4.38c3.53,-0.1 4.45,-2.78 4.74,-4.62l-9.74,0.24z" fill="none" id="svg_272"/>
     <g id="svg_273">
      <path d="m362.41,166.54c1,-0.02 1.83,-0.55 1.86,-0.57c0.18,-0.12 0.23,-0.36 0.12,-0.53c-0.12,-0.18 -0.35,-0.24 -0.53,-0.12c-0.01,0 -0.69,0.43 -1.47,0.45c-0.71,0.02 -1.4,-0.37 -1.41,-0.38c-0.18,-0.1 -0.42,-0.04 -0.53,0.14c-0.1,0.19 -0.04,0.42 0.14,0.53c0.04,0.02 0.88,0.51 1.82,0.48z" fill="#FD857D" id="svg_274"/>
     </g>
     <g id="svg_275">
      <path d="m376.83,144.15c-0.07,3.15 -0.27,7.1 -0.79,10.26l-1.72,-0.08c0,0 0.35,-2.67 0.5,-4.41c0.15,-1.73 0.39,-4.98 -1.1,-5.34c-1.48,-0.37 -0.71,-4.08 -2.8,-5.63c-2.1,-1.55 -6.69,-2.85 -9.67,-0.91c-2.97,1.94 -6.44,1 -7.83,1.35c-1.39,0.36 -3.23,2.33 -2.67,4.12c0.56,1.78 -0.95,2.91 -1.28,4.78c-0.32,1.87 1,6.84 1,6.84l-1.64,0.37c-0.84,-4.04 -1.06,-8.13 -1.08,-11.06c-0.01,-2.99 1.55,-5.77 4.11,-7.31c6.95,-4.17 14.42,-2.87 19.36,-1.12c3.44,1.22 5.7,4.5 5.61,8.14z" fill="#18285D" id="svg_276"/>
     </g>
    </g>
    <g id="svg_277">
     <path d="m335.54,285.45l-4.11,5.61c0,0 -2.38,-1.49 -5.61,-4.08c-0.01,-0.01 -0.01,-0.01 -0.02,-0.02c-4.92,-3.93 -10.9,-11.23 -14.63,-18.74c-5.84,-11.72 -3.19,-20.13 -3.19,-20.13c0.58,-5.64 3.74,-13.45 6.75,-21.96c1.1,-3.09 2.1,-5.78 2.8,-7.67l9.19,2.11l3.93,2.42l-1.51,3.99c-2.6,8.61 -5.54,17.08 -9.48,25.13c0.89,7.89 4.23,17.42 8.08,23.26c3.98,6.06 7.8,10.08 7.8,10.08z" fill="#FDA893" id="svg_278"/>
     <path d="m335.54,285.45l-4.11,5.61c0,0 -2.38,-1.49 -5.61,-4.08c-0.01,-0.01 -0.01,-0.01 -0.02,-0.02c-0.71,-4.24 -0.28,-10.23 1.94,-11.59c3.98,6.06 7.8,10.08 7.8,10.08z" fill="#FD857D" id="svg_279"/>
     <path d="m333.34,278.97c0.83,0.06 5.24,0.28 4.76,-1.23c-0.53,-1.67 -4.85,-3.61 -4.85,-3.61s-0.03,-0.09 0.01,-0.2l-0.04,-0.36l-0.19,-3.57c-0.84,0 -1.61,0.16 -2.02,0.29c-1.9,0.59 -1.64,4.93 -1.64,4.93s-2.39,0.85 -2.31,2.6c0.09,1.76 2.02,2.02 2.02,2.02s-2.63,1.31 -2.02,2.8c0.62,1.49 2.61,1.93 2.61,1.93s-2.26,1.49 -1.47,2.54c0.79,1.05 2.63,1.58 2.63,1.58s-1.57,2.13 0.03,3.29c1.6,1.16 3.95,0.91 5.47,0.39c1.51,-0.53 1.25,-2.46 -1.73,-3.86c0,0 2.63,0.26 3.94,-1.93c1.1,-1.82 -1.7,-2.61 -4.08,-2.92c1.87,0.12 5.1,0.07 5.66,-1.72c0.72,-2.34 -5.77,-2.89 -6.78,-2.97z" fill="#FDA893" id="svg_280"/>
     <path d="m330.65,222.99l-1.51,3.99c-3.05,0.19 -8.51,0.28 -14.41,-0.85c1.1,-3.09 2.1,-5.78 2.8,-7.67l9.19,2.11l3.93,2.42z" fill="#FD857D" id="svg_281"/>
     <path d="m334.59,188.29c0,0 -13.87,13.48 -22.03,33.05c6.4,2.07 12.46,3.54 18.08,4.24c0.67,-1.82 4.17,-9.34 7.27,-14.65l-3.32,-22.64z" fill="#707FFF" id="svg_282"/>
    </g>
   </g>
   <g id="svg_283">
    <path d="m222.48,82.34l0.02,-0.04c0.23,-0.52 0.44,-1.04 0.63,-1.56c2.79,-7.62 3.07,-23.26 -14.3,-26.96c0,0 -14.32,-3.35 -20.68,9.53c0,0 -2.87,5.97 -4.91,10.31c0,0 -1.71,9.11 -10.3,9.91c-8.6,0.8 -13.39,4.1 -12.56,10.47s-0.5,5.35 -6.45,10.74c-5.95,5.38 -10.1,15.45 -4.97,22.07c5.14,6.63 24.34,-9.05 36.64,-2.04c12.3,7 32.95,4.95 35.35,-5.02c2.4,-9.96 -7.22,-16.53 -6.71,-21.59c0.52,-5.07 6.68,-10.98 8.24,-15.82z" fill="#29245D" id="svg_284"/>
    <g id="svg_285">
     <g id="svg_286">
      <path d="m227.15,146.24l-12.27,0.01l-5.93,-11.53l-0.67,-1.32l-2.53,-4.91c0,0 0.51,-20.9 5.87,-23.75l15.53,41.5z" fill="#707FFF" id="svg_287"/>
      <g id="svg_288">
       <path d="m208.95,134.72l-0.67,-1.32c1.18,-2.39 3.22,-7.89 1.6,-14.97c-0.07,-0.33 0.13,-0.65 0.45,-0.72s0.65,0.13 0.72,0.45c1.92,8.4 -0.96,14.57 -2.1,16.56z" fill="#4F60D9" id="svg_289"/>
      </g>
     </g>
     <path d="m230.16,144.79c0,0 1.06,4.56 2.86,5.81c1.8,1.26 1.35,-5.12 1.35,-5.12s0.6,7.69 2.47,7.9c1.86,0.21 1.49,-7.28 1.49,-7.28s1.2,5.15 2.61,5.45c1.42,0.3 1.37,-5.19 1.37,-5.19s1.36,3.99 2.41,4.33c1.05,0.35 1.55,-4.28 0.96,-6.63c-0.58,-2.36 -3.52,-0.93 -3.52,-0.93s-2.77,-0.8 -3.73,0.15c0,0 -2.49,-1.08 -3.88,-0.38c0,0 -4.06,-1.17 -4.39,1.89z" fill="#FDA893" id="svg_290"/>
    </g>
    <g id="svg_291">
     <g id="svg_292">
      <path d="m209.51,114.74c0.47,4.03 1.75,8.1 0.04,14.51c-0.54,2.03 -1.38,3.65 -2.96,6.43l0,0.01c-0.01,0 -0.01,0 -0.01,0c-0.07,0.16 -0.16,0.31 -0.26,0.47c-0.03,0.29 -0.07,0.57 -0.1,0.85c-1.03,7.14 -0.76,3.35 -0.64,9.24l-36.96,0l0.27,-14.63l0.06,-3.12l0.53,-28.72l11.67,-1.03l0.01,0l2.01,-0.18l0.12,-0.02l3.14,-0.27c0.28,-0.03 0.55,-0.05 0.83,-0.07c4.23,-0.26 8.47,0.4 12.44,1.93l0.13,0.05l1.75,0.67l0,0.01l0.11,0.04l1.71,0.66l8.22,3.17c-0.42,1.85 -1.73,8.14 -2.11,10z" fill="#707FFF" id="svg_293"/>
     </g>
     <g id="svg_294">
      <path d="m173.55,120.99l-4.66,10.63l0.06,-3.12l3.5,-7.99c0.13,-0.3 0.49,-0.44 0.79,-0.31c0.3,0.13 0.44,0.49 0.31,0.79z" fill="#4F60D9" id="svg_295"/>
     </g>
     <g id="svg_296">
      <g id="svg_297">
       <g id="svg_298">
        <path d="m181.16,98.74c3.81,7.69 13.14,16.27 17.92,13.62c2.94,-1.63 4.15,-6.97 4.32,-10.8l-1.71,-0.65l-0.11,-0.04l0,-0.01l-1.75,-0.67l-0.13,-0.05c-3.97,-1.53 -8.21,-2.19 -12.44,-1.93c-0.14,0.02 -0.29,0.04 -0.43,0.06c-0.14,0.02 -0.27,0.04 -0.4,0.05l-3.14,0.24l-0.12,0.01l-2.01,0.17z" fill="#FDA893" id="svg_299"/>
       </g>
      </g>
     </g>
     <g id="svg_300">
      <g id="svg_301">
       <path d="m206.32,136.16c-0.03,0.29 -0.07,0.57 -0.1,0.85c-2.02,0.43 -8.38,1.33 -19.19,-1.26c-1.4,-0.34 -2.87,-0.73 -4.42,-1.19c-0.32,-0.1 -0.5,-0.43 -0.41,-0.75c0.1,-0.31 0.43,-0.5 0.75,-0.4c15.58,4.63 23.54,2.3 23.62,2.28c0.01,0 0.01,0 0.02,0c-0.09,0.15 -0.17,0.31 -0.27,0.47z" fill="#4F60D9" id="svg_302"/>
      </g>
     </g>
    </g>
    <g id="svg_303">
     <g id="svg_304">
      <g id="svg_305">
       <path d="m216.54,81.21c0,0 3.44,-2.15 4.31,0.96c0.88,3.11 -4.23,9.54 -7.9,6.21l3.59,-7.17z" fill="#FD857D" id="svg_306"/>
       <path d="m215.06,88.56c-0.15,0.44 0.07,0.92 0.51,1.07c0.43,0.16 0.91,-0.07 1.06,-0.5c0.16,-0.44 -0.07,-0.92 -0.5,-1.07c-0.44,-0.16 -0.91,0.07 -1.07,0.5z" fill="none" id="svg_307"/>
       <g id="svg_308">
        <path d="m214.7,86.46c0.16,0.05 0.34,0.01 0.44,-0.13c1.48,-2.02 4.27,-2.06 4.3,-2.06c0.21,0 0.38,-0.17 0.37,-0.37c-0.01,-0.2 -0.19,-0.37 -0.4,-0.37c-0.13,0 -3.2,0.03 -4.9,2.36c-0.12,0.17 -0.08,0.4 0.1,0.52c0.02,0.02 0.06,0.03 0.09,0.05z" fill="#F05B56" id="svg_309"/>
       </g>
       <g id="svg_310">
        <g id="svg_311">
         <path d="m217.59,86.21c0.07,0.02 0.15,0.03 0.22,0.01c0.21,-0.04 0.33,-0.24 0.28,-0.44c-0.01,-0.03 -0.22,-0.82 -0.99,-1.53c-0.16,-0.15 -0.4,-0.15 -0.54,0c-0.15,0.14 -0.14,0.38 0.02,0.52c0.59,0.56 0.76,1.16 0.77,1.17c0.03,0.13 0.12,0.22 0.24,0.27z" fill="#F05B56" id="svg_312"/>
        </g>
       </g>
      </g>
      <path d="m192.81,90.02l-3.21,8.98c0,0 3.03,4.72 6.19,6.16c3.15,1.45 5.65,-1.99 5.65,-1.99l2.99,-8.36l-11.62,-4.79z" fill="#FDA893" id="svg_313"/>
      <path d="m192.5,90.9l-1.28,3.58c1.32,3.21 4.89,5.46 10.94,6.66l1.95,-5.45l-11.61,-4.79z" fill="#FD857D" id="svg_314"/>
      <path d="m216.74,85.14c-0.41,0.83 -0.85,1.67 -1.32,2.49c-3.12,5.47 -9.07,10.47 -14.12,9.86c-10.9,-1.31 -12.25,-10.72 -11.78,-17.14c0.06,-0.71 0.65,-1.34 0.79,-2.16c0.31,-1.94 0.32,-4.27 0.88,-6.36c0.39,-1.46 0.8,-2.88 1.19,-4.16c1.11,-3.61 4.33,-6.14 8,-6.27c5.3,-0.19 12.85,0.87 18.12,7.16c1.95,2.32 2.54,5.55 1.55,8.49c-0.76,2.25 -1.86,5.15 -3.31,8.09z" fill="#FDA893" id="svg_315"/>
      <g id="svg_316">
       <g id="svg_317">
        <g id="svg_318">
         <path d="m202.82,85.26c-0.18,-0.06 -0.3,-0.26 -0.26,-0.46c0.04,-0.23 0.25,-0.38 0.48,-0.34l1.42,0.26l-0.09,-5.6c0,-0.23 0.18,-0.42 0.41,-0.42c0.23,0 0.42,0.18 0.42,0.41l0.11,6.6l-2.42,-0.43c-0.02,0 -0.04,-0.01 -0.07,-0.02z" fill="#FD857D" id="svg_319"/>
        </g>
       </g>
      </g>
      <path d="m216.38,73.9c3.29,3.21 0.37,7.44 0.86,10.27c0.03,0.18 0.11,0.24 0.24,0.19c1.49,-2.98 2.61,-5.94 3.38,-8.23c1.01,-3.01 0.35,-6.31 -1.72,-8.71c-5.6,-6.49 -13.55,-7.66 -19.1,-7.52c-3.86,0.09 -7.22,2.64 -8.34,6.32c-0.39,1.31 -0.81,2.76 -1.21,4.24c0.52,0.62 2.05,1.37 1.74,2.45c-0.81,2.84 -1.36,4.79 -0.72,4.83c1.08,0.07 2.89,-3.08 2.55,-5.66c0,0 1.42,-1.14 5.6,-1.24c5.36,-0.14 10.85,-1.2 10.85,-1.2s2.17,-0.44 3.28,-1.37c0,0 0.07,3.19 2.59,5.63z" fill="#29245D" id="svg_320"/>
      <path d="m210,80.67c-0.31,0.86 -0.12,1.72 0.43,1.91c0.55,0.2 1.24,-0.34 1.55,-1.2c0.31,-0.87 0.11,-1.72 -0.43,-1.92c-0.55,-0.2 -1.25,0.34 -1.55,1.21z" fill="#29245D" id="svg_321"/>
      <path d="m198.68,76.62c-0.31,0.86 -0.11,1.72 0.44,1.91c0.54,0.2 1.24,-0.34 1.55,-1.2c0.3,-0.87 0.11,-1.72 -0.44,-1.92s-1.24,0.34 -1.55,1.21z" fill="#29245D" id="svg_322"/>
      <path d="m214.87,77.21c-0.74,-0.44 -2.26,-1.28 -4,-1.83c-0.46,-0.15 -0.95,0.07 -1.01,0.45l0,0.01c-0.06,0.3 0.18,0.61 0.55,0.71c1.21,0.33 4.26,1.44 5.54,2.38c0.11,-0.2 0.05,-0.46 -0.08,-0.73c-0.2,-0.4 -0.56,-0.73 -1,-0.99z" fill="#29245D" id="svg_323"/>
      <path d="m198.84,71.69c0.86,0.12 2.57,0.42 4.28,1.07c0.44,0.17 0.69,0.64 0.51,0.98l-0.01,0.01c-0.15,0.27 -0.52,0.36 -0.88,0.21c-1.15,-0.49 -4.23,-1.53 -5.81,-1.59c0.03,-0.22 0.24,-0.4 0.51,-0.52c0.41,-0.19 0.9,-0.22 1.4,-0.16z" fill="#29245D" id="svg_324"/>
      <path d="m206.33,89.15c-0.78,1.27 -2.64,3.45 -5.89,2.29c-3.26,-1.17 -3.35,-3.8 -3.1,-5.5l8.99,3.21z" fill="none" id="svg_325"/>
      <g id="svg_326">
       <path d="m199.64,93.81c0.94,0.34 1.95,0.13 1.99,0.12c0.22,-0.05 0.36,-0.27 0.31,-0.49c-0.05,-0.22 -0.26,-0.36 -0.48,-0.31l0,0c-0.01,0 -0.83,0.17 -1.55,-0.09c-0.77,-0.27 -1.32,-0.93 -1.32,-0.94c-0.15,-0.17 -0.4,-0.2 -0.58,-0.05c-0.17,0.14 -0.2,0.39 -0.05,0.57c0.02,0.03 0.69,0.84 1.68,1.19z" fill="#FD857D" id="svg_327"/>
      </g>
     </g>
     <g id="svg_328">
      <path d="m192.27,72.51c0,0 -1.56,-4.32 -4.05,-2.49c-2.48,1.83 -2.73,9.76 1.87,9.45l2.18,-6.96z" fill="#FDA893" id="svg_329"/>
      <path d="m187.53,78.73c-0.15,0.44 0.07,0.91 0.51,1.07c0.43,0.16 0.91,-0.07 1.07,-0.5c0.15,-0.44 -0.07,-0.92 -0.51,-1.07c-0.43,-0.16 -0.91,0.07 -1.07,0.5z" fill="none" id="svg_330"/>
      <g id="svg_331">
       <path d="m190.01,76.96c-0.15,-0.06 -0.25,-0.2 -0.24,-0.36c0.17,-2.42 -1.79,-4.12 -1.81,-4.14c-0.15,-0.13 -0.16,-0.35 -0.04,-0.5c0.13,-0.15 0.36,-0.17 0.51,-0.05c0.09,0.08 2.25,1.95 2.06,4.73c-0.02,0.2 -0.19,0.35 -0.39,0.34c-0.03,-0.01 -0.06,-0.01 -0.09,-0.02z" fill="#FD857D" id="svg_332"/>
      </g>
      <g id="svg_333">
       <g id="svg_334">
        <g id="svg_335">
         <path d="m188.11,75.03c-0.07,-0.02 -0.12,-0.06 -0.17,-0.12c-0.12,-0.15 -0.09,-0.38 0.07,-0.5c0.02,-0.02 0.65,-0.49 1.62,-0.57c0.2,-0.01 0.37,0.14 0.39,0.33c0.01,0.2 -0.14,0.37 -0.33,0.39c-0.76,0.06 -1.24,0.41 -1.25,0.42c-0.1,0.07 -0.22,0.09 -0.33,0.05z" fill="#FD857D" id="svg_336"/>
        </g>
       </g>
      </g>
     </g>
     <g id="svg_337">
      <g id="svg_338">
       <path d="m204.37,77.29c0.09,-0.23 0.12,-0.47 0.1,-0.71c-0.06,-0.64 -0.46,-1.22 -1.1,-1.47l-5.66,-2.16c-0.45,-0.17 -0.92,-0.14 -1.32,0.04c-0.22,0.09 -0.42,0.24 -0.58,0.42c-0.14,0.16 -0.25,0.33 -0.33,0.53l-0.28,0.73c-0.46,1.22 -0.43,2.58 0.09,3.72c0.53,1.13 1.32,1.92 2.37,2.34l0.14,0.06c1.22,0.46 2.53,0.43 3.72,-0.1c1.21,-0.54 2.13,-1.51 2.6,-2.74l0.24,-0.61c0,-0.02 0.01,-0.03 0.01,-0.05zm-0.91,0.4c-0.41,1.06 -1.2,1.89 -2.23,2.34c-1.01,0.45 -2.14,0.48 -3.17,0.09l-0.14,-0.05c-0.86,-0.36 -1.53,-1.02 -1.98,-1.99c-0.44,-0.96 -0.47,-2.11 -0.07,-3.16l0.28,-0.72c0.2,-0.52 0.78,-0.78 1.3,-0.58l5.66,2.16c0.52,0.2 0.78,0.78 0.58,1.3l-0.23,0.61z" fill="none" id="svg_339"/>
      </g>
      <g id="svg_340">
       <path d="m216.46,81.47c0.03,-0.24 0,-0.49 -0.08,-0.72c-0.16,-0.46 -0.52,-0.86 -1.02,-1.05l-5.66,-2.17c-0.65,-0.25 -1.37,-0.07 -1.84,0.4c-0.15,0.16 -0.28,0.35 -0.37,0.57c0,0.01 -0.01,0.02 -0.01,0.03l-0.28,0.72c-0.47,1.23 -0.43,2.58 0.09,3.72c0.53,1.13 1.32,1.92 2.36,2.34l0.15,0.06c1.22,0.47 2.53,0.43 3.72,-0.09c1.21,-0.54 2.13,-1.51 2.6,-2.74l0.24,-0.62c0.05,-0.14 0.09,-0.3 0.1,-0.45zm-1,0.81c-0.41,1.06 -1.2,1.89 -2.23,2.34c-1.01,0.45 -2.14,0.48 -3.17,0.09l-0.14,-0.06c-0.87,-0.35 -1.53,-1.02 -1.98,-1.98c-0.44,-0.96 -0.47,-2.12 -0.07,-3.16l0.28,-0.73c0.19,-0.52 0.78,-0.78 1.3,-0.58l5.66,2.17c0.52,0.2 0.78,0.78 0.58,1.3l-0.23,0.61z" fill="none" id="svg_341"/>
      </g>
      <g id="svg_342">
       <path d="m196.39,72.98c-0.46,-0.5 -1.72,-1.67 -3.86,-2.3l0,0.75c1.76,0.58 2.85,1.54 3.28,1.98c0.14,0.15 0.21,0.24 0.22,0.25l0.56,-0.44c-0.01,-0.02 -0.08,-0.1 -0.2,-0.24z" fill="none" id="svg_343"/>
      </g>
      <g id="svg_344">
       <path d="m204.12,77.28l0.03,-0.72c0.04,0 1.1,0.04 2.13,0.43c1.1,0.42 1.67,1.03 1.7,1.05l-0.52,0.49c-0.01,0 -0.5,-0.51 -1.44,-0.87c-0.91,-0.35 -1.89,-0.38 -1.9,-0.38z" fill="none" id="svg_345"/>
      </g>
      <g id="svg_346">
       <path d="m218.68,80.93c-1.33,-0.27 -2.53,-0.16 -2.61,-0.16l0.06,0.71c0.03,0 1.26,-0.1 2.55,0.18l0,-0.73z" fill="none" id="svg_347"/>
      </g>
     </g>
    </g>
    <path d="m198.79,146.29c0,0 0.23,4.56 -1.22,5.81c-1.45,1.26 -2.79,-5.12 -2.79,-5.12s1.56,7.69 -0.24,7.9c-1.81,0.21 -3.55,-7.28 -3.55,-7.28s0.25,5.15 -1.08,5.45c-1.32,0.3 -2.82,-5.19 -2.82,-5.19s-0.25,3.99 -1.19,4.33c-0.95,0.35 -2.76,-4.28 -2.84,-6.63c-0.08,-2.36 3.26,-0.93 3.26,-0.93s2.54,-0.8 3.78,0.15c0,0 2.18,-1.08 3.77,-0.38c0,0 3.73,-1.17 4.92,1.89z" fill="#FDA893" id="svg_348"/>
    <g id="svg_349">
     <g id="svg_350">
      <g id="svg_351">
       <g id="svg_352">
        <g id="svg_353">
         <g id="svg_354">
          <path d="m178.43,146.24l-26.25,0.01c-0.02,-0.01 -0.08,-0.23 -0.08,-0.24c-0.46,-6.97 3.95,-18.71 7.03,-28.97c2.04,-6.79 4.72,-14.96 10.35,-17.26c0.99,1.17 2.82,5.99 2.95,8.45c0.3,5.94 -0.45,12.22 -1.55,15.52c-1.59,4.74 -3.58,10.51 -5.03,15.25c0,0 0,0.01 -0.01,0.04c-0.03,0.13 -0.13,0.6 -0.13,0.61c0.04,0.01 0.3,0.15 0.76,0.41c1.71,0.95 6.18,3.46 11.96,6.18z" fill="#707FFF" id="svg_355"/>
         </g>
        </g>
       </g>
      </g>
     </g>
     <g id="svg_356">
      <path d="m166.47,140.06c-2.75,1.28 -6.64,3.98 -6.68,4.01c-0.11,0.08 -0.23,0.11 -0.34,0.11c-0.19,0 -0.38,-0.09 -0.5,-0.26c-0.19,-0.27 -0.12,-0.64 0.15,-0.83c0.17,-0.12 3.92,-2.72 6.74,-4.05c-0.03,0.13 -0.13,0.6 -0.13,0.61c0.04,0.01 0.3,0.15 0.76,0.41z" fill="#4F60D9" id="svg_357"/>
     </g>
    </g>
    <path d="m186.43,98.28c0,0 2,9.1 9.16,9.6s7.81,-6.74 7.81,-6.74" fill="none" id="svg_358" stroke="#FFFFFF" stroke-linecap="round" stroke-miterlimit="10" stroke-width="1.2"/>
   </g>
   <g id="svg_359">
    <g id="svg_360">
     <g id="svg_361">
      <g id="svg_362">
       <path d="m439.13,396.39c0,0 -0.81,0.8 -2.49,0.92c-0.5,0.04 -1.08,0.02 -1.75,-0.12c-0.71,-0.13 -1.51,-0.38 -2.41,-0.8c0,0 0.39,-16.44 -6.26,-27.77c-6.64,-11.32 -15.45,-26.96 -8.41,-34.99c7.05,-8.02 18.39,3.13 22.1,21.91c3.72,18.78 -0.78,40.85 -0.78,40.85z" fill="#4F60D9" id="svg_363"/>
      </g>
      <g id="svg_364">
       <path d="m436.64,397.31c-0.5,0.04 -1.08,0.02 -1.75,-0.12c2.14,-29.18 -11.11,-51.73 -11.25,-51.96c-0.25,-0.41 -0.11,-0.95 0.3,-1.2c0.42,-0.25 0.96,-0.12 1.21,0.3c0.14,0.23 13.67,23.22 11.49,52.98z" fill="#1D38C8" id="svg_365"/>
      </g>
     </g>
     <g id="svg_366">
      <g id="svg_367">
       <path d="m461.94,369.86c-15.56,25.14 -14.49,30.96 -14.49,30.96l-2.04,-0.36l-1.73,-0.31l-2.48,-0.44c-1.38,-11.15 7.19,-58.3 22.46,-58.3c15.55,0 3.57,19.89 -1.72,28.45z" fill="#4F60D9" id="svg_368"/>
      </g>
      <g id="svg_369">
       <path d="m461.35,355.39c-0.15,0.24 -13.17,23.48 -15.94,45.07l-1.74,-0.31c2.84,-21.93 16,-45.38 16.14,-45.63c0.24,-0.42 0.78,-0.57 1.2,-0.33c0.43,0.24 0.57,0.77 0.34,1.2z" fill="#1D38C8" id="svg_370"/>
      </g>
     </g>
     <g id="svg_371">
      <g id="svg_372">
       <path d="m432.34,398.62l-1.79,0.48l-1.71,0.46l-1.03,0.28c0.07,-0.22 -0.71,-2.15 -11.66,-16.77c-4.51,-6.04 -16.57,-22.3 -5.52,-25.02c10.14,-2.5 22.01,32.15 21.71,40.57z" fill="#4F60D9" id="svg_373"/>
      </g>
      <g id="svg_374">
       <path d="m430.55,399.1l-1.71,0.46c-3.16,-14.08 -15.97,-31.38 -16.11,-31.56c-0.28,-0.39 -0.2,-0.94 0.19,-1.24c0.38,-0.28 0.93,-0.21 1.23,0.19c0.56,0.76 13.15,17.74 16.4,32.15z" fill="#1D38C8" id="svg_375"/>
      </g>
     </g>
     <g id="svg_376">
      <path d="m454.02,435.82c0,2.82 -34.79,2.82 -34.79,0l0,-41.36c0,-0.43 0.34,-0.78 0.77,-0.78l33.24,0c0.43,0 0.77,0.35 0.77,0.78l0,41.36l0.01,0z" fill="#3B3E7D" id="svg_377"/>
     </g>
    </g>
    <g id="svg_378">
     <g id="svg_379">
      <g id="svg_380">
       <path d="m93,436.86l-25,0c-3.4,0 -6.42,-2.6 -7.47,-6.45l-10.6,-38.78c-0.44,-1.59 0.49,-3.23 1.89,-3.36c19.31,-1.78 38.43,-1.78 57.36,-0.01c1.4,0.13 2.33,1.78 1.89,3.37l-10.6,38.78c-1.05,3.84 -4.07,6.45 -7.47,6.45z" fill="#3B3E7D" id="svg_381"/>
      </g>
      <g id="svg_382">
       <path d="m108.85,391.08c0,1.03 -12.61,1.87 -28.18,1.87s-28.18,-0.84 -28.18,-1.87c0,-1.03 12.62,-1.87 28.18,-1.87s28.18,0.84 28.18,1.87z" fill="#18285D" id="svg_383"/>
      </g>
      <path d="m112.59,338.67c-10.14,-2.67 -25.64,18.38 -30.34,38.9l0,-29.9c2.36,-4.19 6.87,-10.51 15.06,-17.18c12.74,-10.37 24.46,-23.68 14.3,-26.35c-9.52,-2.51 -23.76,15.89 -29.36,35.13l0,-38.4c1.64,-2.55 4.32,-5.89 8.62,-9.39c8.03,-6.53 15.42,-14.92 9.01,-16.61c-5.55,-1.46 -13.66,8.37 -17.63,19.47l0,-12.45c0.65,-3.85 1.58,-9.35 4.13,-14.97c5.9,-13.03 9.09,-26.45 1.31,-25.45c-7.79,1 -12.84,24.2 -8.58,42.01l0,6.41c-2.88,-13.04 -12.75,-26.54 -19.2,-24.84c-6.4,1.69 0.99,10.08 9.01,16.61c6.11,4.98 8.97,9.64 10.18,12.14l0,30.25c-4.61,-20.62 -20.22,-41.91 -30.41,-39.23c-10.16,2.68 1.56,15.99 14.3,26.36c9.62,7.84 14.16,15.18 16.11,19.18l0,36.27c-4.93,-20.25 -20.14,-40.68 -30.14,-38.05c-10.16,2.68 -1.44,12.41 12.87,24.17c9.72,8 14.93,16.43 17.27,21.02l0,17.09c1.14,0.32 2.2,0.31 3.14,0l0,-6.8c2,-4.03 6.54,-11.29 16.05,-19.03c12.74,-10.37 24.46,-23.68 14.3,-26.36z" fill="#4F60D9" id="svg_384"/>
     </g>
    </g>
   </g>
  </g>
 </g>
</svg>
